<?xml version="1.0" encoding="utf-8"?>
<!-- Generator: Adobe Illustrator 27.2.0, SVG Export Plug-In . SVG Version: 6.00 Build 0)  -->
<svg version="1.1" id="Layer_1" xmlns="http://www.w3.org/2000/svg" xmlns:xlink="http://www.w3.org/1999/xlink" x="0px" y="0px"
	 viewBox="0 0 211.5 211.5" style="enable-background:new 0 0 211.5 211.5;" xml:space="preserve">
<style type="text/css">
	.st0{fill:#DC0D15;}
</style>
<g>
	<g>
		<path class="st0" d="M179.1,178.7h-3.8c-0.7,0-1-1-0.5-1.5l1.1-0.9c0.9-0.8,2.1-1.2,3.3-1.2h3.8c0.7,0,1,1,0.5,1.5l-1.1,0.9
			C181.5,178.3,180.3,178.7,179.1,178.7"/>
	</g>
	<g>
		<path class="st0" d="M184.1,173.4l-3.8,0.3c-0.7,0-1.1-0.9-0.6-1.4l1-1c0.9-0.9,2-1.4,3.2-1.5l3.8-0.3c0.7-0.1,1.1,0.9,0.6,1.4
			l-1,1C186.4,172.8,185.3,173.3,184.1,173.4"/>
	</g>
	<g>
		<path class="st0" d="M188.6,167.8l-3.7,0.5c-0.7,0.1-1.2-0.8-0.7-1.4l0.9-1.1c0.8-0.9,1.9-1.5,3.1-1.7l3.7-0.5
			c0.7-0.1,1.2,0.8,0.7,1.4l-0.9,1.1C190.9,167,189.8,167.6,188.6,167.8"/>
	</g>
	<g>
		<path class="st0" d="M192.8,161.8l-3.7,0.8c-0.7,0.2-1.2-0.7-0.8-1.3l0.9-1.1c0.7-1,1.8-1.6,2.9-1.9l3.7-0.8
			c0.7-0.2,1.2,0.7,0.8,1.3l-0.9,1.1C195,160.9,193.9,161.6,192.8,161.8"/>
	</g>
	<g>
		<path class="st0" d="M196.5,155.6l-3.6,1c-0.7,0.2-1.3-0.7-0.9-1.3l0.8-1.2c0.7-1,1.7-1.8,2.8-2.1l3.6-1c0.7-0.2,1.3,0.6,0.9,1.3
			l-0.8,1.2C198.6,154.5,197.6,155.3,196.5,155.6"/>
	</g>
	<g>
		<path class="st0" d="M199.8,149.1l-3.5,1.3c-0.7,0.3-1.3-0.6-1-1.2l0.7-1.2c0.6-1.1,1.5-1.9,2.6-2.3l3.5-1.3
			c0.7-0.2,1.3,0.6,1,1.2l-0.7,1.3C201.8,147.9,200.9,148.7,199.8,149.1"/>
	</g>
	<g>
		<path class="st0" d="M202.6,142.5l-3.5,1.5c-0.7,0.3-1.3-0.5-1-1.1l0.6-1.3c0.5-1.1,1.4-2,2.5-2.5l3.4-1.5c0.7-0.3,1.4,0.5,1,1.1
			l-0.6,1.3C204.6,141.1,203.7,142,202.6,142.5"/>
	</g>
	<g>
		<path class="st0" d="M205,135.6l-3.3,1.8c-0.6,0.3-1.4-0.4-1.1-1.1l0.5-1.3c0.4-1.1,1.3-2.1,2.3-2.6l3.3-1.8
			c0.6-0.3,1.4,0.4,1.1,1.1l-0.5,1.3C206.8,134.2,206,135.1,205,135.6"/>
	</g>
	<g>
		<path class="st0" d="M206.8,128.6l-3.2,2c-0.6,0.4-1.4-0.3-1.2-1l0.4-1.4c0.4-1.2,1.1-2.1,2.1-2.8l3.2-2c0.6-0.4,1.4,0.3,1.2,1
			l-0.4,1.4C208.6,127,207.8,128,206.8,128.6"/>
	</g>
	<g>
		<path class="st0" d="M208.2,121.5l-3.1,2.2c-0.6,0.4-1.4-0.2-1.2-0.9l0.3-1.4c0.3-1.2,1-2.2,1.9-2.9l3.1-2.2
			c0.6-0.4,1.4,0.2,1.2,0.9l-0.3,1.4C209.8,119.8,209.2,120.8,208.2,121.5"/>
	</g>
	<g>
		<path class="st0" d="M209.1,114.3l-2.9,2.4c-0.6,0.5-1.4-0.1-1.3-0.8l0.2-1.4c0.2-1.2,0.8-2.3,1.7-3l2.9-2.4
			c0.6-0.5,1.4,0.1,1.3,0.8l-0.2,1.4C210.6,112.5,210,113.6,209.1,114.3"/>
	</g>
	<g>
		<path class="st0" d="M209.5,107.1l-2.7,2.6c-0.5,0.5-1.4,0-1.4-0.7l0.1-1.4c0.1-1.2,0.6-2.3,1.5-3.2l2.7-2.6
			c0.5-0.5,1.4,0,1.4,0.7l-0.1,1.4C210.8,105.2,210.3,106.3,209.5,107.1"/>
	</g>
	<g>
		<path class="st0" d="M209.3,99.9l-2.5,2.8c-0.5,0.5-1.4,0.1-1.4-0.6l0-1.4c0-1.2,0.5-2.4,1.3-3.3l2.5-2.8c0.5-0.5,1.4-0.1,1.4,0.6
			l0,1.4C210.6,97.8,210.1,99,209.3,99.9"/>
	</g>
	<g>
		<path class="st0" d="M208.7,92.7l-2.3,3c-0.4,0.6-1.4,0.2-1.5-0.5l-0.1-1.4c-0.1-1.2,0.3-2.4,1-3.3l2.3-3c0.4-0.6,1.4-0.2,1.5,0.5
			l0.1,1.4C209.8,90.5,209.4,91.7,208.7,92.7"/>
	</g>
	<g>
		<path class="st0" d="M207.5,85.5l-2.1,3.1c-0.4,0.6-1.4,0.3-1.5-0.4l-0.2-1.4c-0.1-1.2,0.1-2.4,0.8-3.4l2.1-3.1
			c0.4-0.6,1.4-0.3,1.5,0.4l0.2,1.4C208.5,83.3,208.2,84.5,207.5,85.5"/>
	</g>
	<g>
		<path class="st0" d="M205.9,78.4l-1.9,3.3c-0.4,0.6-1.4,0.4-1.5-0.3l-0.3-1.4c-0.2-1.2,0-2.4,0.6-3.4l1.9-3.3
			c0.4-0.6,1.4-0.4,1.5,0.3l0.3,1.4C206.7,76.2,206.5,77.4,205.9,78.4"/>
	</g>
	<g>
		<path class="st0" d="M203.8,71.5l-1.7,3.4c-0.3,0.6-1.3,0.5-1.5-0.2l-0.4-1.4c-0.3-1.2-0.2-2.4,0.3-3.5l1.7-3.4
			c0.3-0.6,1.3-0.5,1.5,0.2l0.4,1.4C204.4,69.2,204.3,70.5,203.8,71.5"/>
	</g>
	<g>
		<path class="st0" d="M201.2,64.8l-1.4,3.5c-0.3,0.7-1.3,0.6-1.5-0.1l-0.5-1.4c-0.4-1.2-0.4-2.4,0.1-3.5l1.4-3.5
			c0.3-0.7,1.3-0.6,1.5,0.1l0.5,1.4C201.6,62.4,201.6,63.7,201.2,64.8"/>
	</g>
	<g>
		<path class="st0" d="M198.1,58.2l-1.2,3.6c-0.2,0.7-1.2,0.7-1.5,0l-0.6-1.3c-0.5-1.1-0.5-2.4-0.2-3.5l1.2-3.6
			c0.2-0.7,1.3-0.7,1.5,0l0.6,1.3C198.4,55.8,198.5,57.1,198.1,58.2"/>
	</g>
	<g>
		<path class="st0" d="M194.6,51.9l-0.9,3.7c-0.2,0.7-1.2,0.8-1.5,0.1l-0.7-1.3c-0.6-1.1-0.7-2.3-0.4-3.5l0.9-3.7
			c0.2-0.7,1.2-0.8,1.5-0.1l0.6,1.3C194.7,49.5,194.9,50.7,194.6,51.9"/>
	</g>
	<g>
		<path class="st0" d="M190.6,45.8l-0.7,3.7c-0.1,0.7-1.1,0.9-1.5,0.2l-0.7-1.2c-0.6-1.1-0.9-2.3-0.6-3.4l0.7-3.7
			c0.1-0.7,1.1-0.9,1.5-0.2l0.7,1.2C190.6,43.4,190.8,44.6,190.6,45.8"/>
	</g>
	<g>
		<path class="st0" d="M186.3,40l-0.4,3.8c-0.1,0.7-1.1,0.9-1.5,0.3l-0.8-1.2c-0.7-1-1-2.2-0.9-3.4l0.4-3.8c0.1-0.7,1.1-0.9,1.5-0.3
			l0.8,1.2C186.1,37.7,186.4,38.8,186.3,40"/>
	</g>
	<g>
		<path class="st0" d="M181.5,34.6l-0.1,3.8c0,0.7-1,1-1.5,0.4l-0.9-1.1c-0.8-1-1.2-2.1-1.1-3.3l0.1-3.8c0-0.7,1-1,1.5-0.4l0.9,1.1
			C181.2,32.2,181.6,33.4,181.5,34.6"/>
	</g>
	<g>
		<path class="st0" d="M176.4,29.4l0.1,3.8c0,0.7-0.9,1.1-1.4,0.5l-1-1.1c-0.8-0.9-1.3-2-1.4-3.2l-0.1-3.8c0-0.7,0.9-1.1,1.5-0.5
			l1,1.1C175.9,27.1,176.3,28.3,176.4,29.4"/>
	</g>
	<g>
		<path class="st0" d="M170.9,24.7l0.4,3.8c0.1,0.7-0.9,1.1-1.4,0.6l-1-1c-0.9-0.8-1.4-1.9-1.6-3.1l-0.4-3.8
			c-0.1-0.7,0.9-1.1,1.4-0.6l1,1C170.2,22.4,170.8,23.5,170.9,24.7"/>
	</g>
	<g>
		<path class="st0" d="M165.1,20.3l0.7,3.7c0.1,0.7-0.8,1.2-1.4,0.7l-1.1-0.9c-0.9-0.8-1.6-1.8-1.8-3l-0.7-3.7
			c-0.1-0.7,0.8-1.2,1.4-0.7l1.1,0.9C164.3,18.1,164.9,19.2,165.1,20.3"/>
	</g>
	<g>
		<path class="st0" d="M159,16.4l0.9,3.7c0.2,0.7-0.7,1.3-1.3,0.8l-1.2-0.8c-1-0.7-1.7-1.7-2-2.9l-0.9-3.7c-0.2-0.7,0.7-1.2,1.3-0.8
			l1.2,0.8C158,14.2,158.8,15.3,159,16.4"/>
	</g>
	<g>
		<path class="st0" d="M152.7,12.9l1.2,3.6c0.2,0.7-0.6,1.3-1.2,0.9l-1.2-0.7c-1-0.6-1.8-1.6-2.2-2.7l-1.2-3.6
			c-0.2-0.7,0.6-1.3,1.2-0.9l1.2,0.7C151.6,10.8,152.3,11.8,152.7,12.9"/>
	</g>
	<g>
		<path class="st0" d="M146.1,9.9l1.4,3.5c0.3,0.7-0.5,1.3-1.2,1l-1.3-0.7c-1.1-0.6-1.9-1.5-2.4-2.6l-1.4-3.5
			c-0.3-0.7,0.5-1.3,1.2-1l1.3,0.7C144.9,7.8,145.7,8.8,146.1,9.9"/>
	</g>
	<g>
		<path class="st0" d="M139.4,7.3l1.7,3.4c0.3,0.6-0.4,1.4-1.1,1.1l-1.3-0.6c-1.1-0.5-2-1.3-2.5-2.4l-1.7-3.4
			c-0.3-0.6,0.4-1.4,1.1-1.1l1.3,0.6C138,5.4,138.8,6.2,139.4,7.3"/>
	</g>
	<g>
		<path class="st0" d="M132.4,5.2l1.9,3.3c0.4,0.6-0.3,1.4-1,1.1l-1.4-0.5c-1.2-0.4-2.1-1.2-2.7-2.2l-1.9-3.3
			c-0.4-0.6,0.3-1.4,1-1.2l1.3,0.5C130.9,3.3,131.8,4.1,132.4,5.2"/>
	</g>
	<g>
		<path class="st0" d="M125.4,3.5l2.1,3.1c0.4,0.6-0.2,1.4-0.9,1.2l-1.4-0.4c-1.2-0.3-2.2-1-2.8-2l-2.1-3.1
			c-0.4-0.6,0.2-1.4,0.9-1.2l1.4,0.4C123.7,1.8,124.7,2.5,125.4,3.5"/>
	</g>
	<g>
		<path class="st0" d="M118.2,2.4l2.3,3c0.4,0.6-0.1,1.4-0.9,1.3l-1.4-0.3c-1.2-0.2-2.3-0.9-3-1.8l-2.3-3c-0.4-0.6,0.1-1.4,0.9-1.3
			l1.4,0.3C116.4,0.8,117.5,1.5,118.2,2.4"/>
	</g>
	<g>
		<path class="st0" d="M111,1.8l2.5,2.8c0.5,0.5,0,1.4-0.8,1.3l-1.4-0.2c-1.2-0.2-2.3-0.7-3.1-1.6l-2.5-2.8c-0.5-0.5,0-1.4,0.8-1.3
			l1.4,0.2C109.1,0.3,110.2,0.9,111,1.8"/>
	</g>
	<g>
		<path class="st0" d="M103.8,1.7l2.7,2.6c0.5,0.5,0.1,1.4-0.7,1.4l-1.4-0.1c-1.2-0.1-2.3-0.5-3.2-1.4l-2.7-2.6
			c-0.5-0.5-0.1-1.4,0.7-1.4l1.4,0.1C101.8,0.4,102.9,0.8,103.8,1.7"/>
	</g>
	<g>
		<path class="st0" d="M96.5,2l2.9,2.4c0.6,0.5,0.2,1.4-0.6,1.4l-1.4,0c-1.2,0-2.4-0.4-3.3-1.1l-2.9-2.4c-0.6-0.5-0.2-1.4,0.6-1.4
			l1.4,0C94.5,0.9,95.6,1.3,96.5,2"/>
	</g>
	<g>
		<path class="st0" d="M89.3,2.9l3.1,2.2c0.6,0.4,0.3,1.4-0.5,1.5l-1.4,0.1c-1.2,0.1-2.4-0.2-3.4-0.9l-3.1-2.2
			c-0.6-0.4-0.3-1.4,0.5-1.5L86,2C87.2,1.9,88.4,2.2,89.3,2.9"/>
	</g>
	<g>
		<path class="st0" d="M82.2,4.3l3.2,2c0.6,0.4,0.4,1.4-0.4,1.5L83.6,8c-1.2,0.2-2.4,0-3.4-0.7l-3.2-2C76.4,5,76.7,4,77.4,3.9
			l1.4-0.2C80,3.5,81.2,3.7,82.2,4.3"/>
	</g>
	<g>
		<path class="st0" d="M75.2,6.2L78.6,8c0.6,0.4,0.5,1.4-0.3,1.5l-1.4,0.3c-1.2,0.3-2.4,0.1-3.5-0.4l-3.3-1.8
			c-0.6-0.3-0.5-1.4,0.3-1.5l1.4-0.3C73,5.5,74.2,5.7,75.2,6.2"/>
	</g>
	<g>
		<path class="st0" d="M68.4,8.6l3.5,1.5c0.7,0.3,0.6,1.3-0.2,1.5l-1.4,0.4c-1.2,0.4-2.4,0.3-3.5-0.2l-3.4-1.5
			C62.7,10,62.8,9,63.5,8.8l1.4-0.4C66.1,8,67.3,8.1,68.4,8.6"/>
	</g>
	<g>
		<path class="st0" d="M61.7,11.4l3.5,1.3c0.7,0.3,0.6,1.3,0,1.5l-1.3,0.5c-1.1,0.4-2.4,0.5-3.5,0l-3.5-1.3c-0.7-0.2-0.6-1.3,0-1.5
			l1.3-0.5C59.4,11,60.6,11,61.7,11.4"/>
	</g>
	<g>
		<path class="st0" d="M55.3,14.7l3.6,1c0.7,0.2,0.7,1.2,0.1,1.5l-1.3,0.6c-1.1,0.5-2.3,0.6-3.5,0.3l-3.6-1
			c-0.7-0.2-0.7-1.2-0.1-1.5l1.3-0.6C52.9,14.5,54.1,14.4,55.3,14.7"/>
	</g>
	<g>
		<path class="st0" d="M49.1,18.4l3.7,0.8c0.7,0.2,0.8,1.2,0.2,1.5l-1.3,0.7c-1.1,0.6-2.3,0.8-3.4,0.5l-3.7-0.8
			c-0.7-0.1-0.8-1.2-0.2-1.5l1.3-0.7C46.7,18.4,47.9,18.2,49.1,18.4"/>
	</g>
	<g>
		<path class="st0" d="M43.1,22.6l3.7,0.5c0.7,0.1,0.9,1.1,0.3,1.5l-1.2,0.8c-1,0.7-2.2,0.9-3.4,0.8l-3.7-0.5
			c-0.7-0.1-0.9-1.1-0.3-1.5l1.2-0.8C40.8,22.7,42,22.4,43.1,22.6"/>
	</g>
	<g>
		<path class="st0" d="M37.5,27.2l3.8,0.3c0.7,0,1,1,0.4,1.5l-1.1,0.9c-1,0.7-2.2,1.1-3.3,1l-3.8-0.3c-0.7-0.1-1-1-0.4-1.5l1.1-0.9
			C35.1,27.4,36.3,27.1,37.5,27.2"/>
	</g>
	<g>
		<path class="st0" d="M32.2,32.1H36c0.7,0,1,1,0.5,1.5l-1.1,0.9c-0.9,0.8-2.1,1.2-3.3,1.2h-3.8c-0.7,0-1.1-1-0.5-1.5l1.1-0.9
			C29.9,32.5,31,32.1,32.2,32.1"/>
	</g>
	<g>
		<path class="st0" d="M27.3,37.4l3.8-0.3c0.7-0.1,1.1,0.9,0.6,1.4l-1,1c-0.9,0.9-2,1.4-3.2,1.5l-3.8,0.3c-0.7,0-1.1-0.9-0.6-1.4
			l1-1C25,38,26.1,37.5,27.3,37.4"/>
	</g>
	<g>
		<path class="st0" d="M22.7,43l3.7-0.5c0.7-0.1,1.2,0.8,0.7,1.4L26.2,45c-0.8,0.9-1.9,1.5-3.1,1.7l-3.7,0.5
			c-0.7,0.1-1.2-0.8-0.7-1.4l0.9-1.1C20.5,43.8,21.5,43.2,22.7,43"/>
	</g>
	<g>
		<path class="st0" d="M18.6,49l3.7-0.8c0.7-0.1,1.2,0.7,0.8,1.3l-0.9,1.1c-0.7,1-1.8,1.6-2.9,1.9l-3.7,0.8
			c-0.7,0.2-1.2-0.7-0.8-1.3l0.9-1.1C16.4,49.9,17.4,49.2,18.6,49"/>
	</g>
	<g>
		<path class="st0" d="M14.8,55.2l3.6-1c0.7-0.2,1.3,0.7,0.9,1.3l-0.8,1.2c-0.7,1-1.7,1.8-2.8,2.1l-3.6,1c-0.7,0.2-1.3-0.7-0.9-1.3
			l0.8-1.2C12.7,56.3,13.7,55.5,14.8,55.2"/>
	</g>
	<g>
		<path class="st0" d="M11.6,61.6l3.5-1.3c0.7-0.2,1.3,0.6,1,1.2l-0.7,1.3c-0.6,1.1-1.5,1.9-2.6,2.3l-3.5,1.3
			c-0.7,0.2-1.3-0.6-1-1.2l0.7-1.3C9.5,62.9,10.4,62.1,11.6,61.6"/>
	</g>
	<g>
		<path class="st0" d="M8.7,68.3l3.4-1.5c0.7-0.3,1.4,0.5,1,1.1l-0.6,1.3c-0.5,1.1-1.4,2-2.5,2.5l-3.4,1.5c-0.7,0.3-1.4-0.5-1-1.1
			l0.6-1.3C6.8,69.7,7.7,68.8,8.7,68.3"/>
	</g>
	<g>
		<path class="st0" d="M6.4,75.2l3.3-1.8c0.6-0.3,1.4,0.4,1.1,1.1l-0.5,1.3c-0.4,1.1-1.3,2.1-2.3,2.6l-3.3,1.8
			c-0.6,0.3-1.4-0.4-1.1-1.1l0.5-1.3C4.5,76.6,5.3,75.7,6.4,75.2"/>
	</g>
	<g>
		<path class="st0" d="M4.5,82.2l3.2-2c0.6-0.4,1.4,0.3,1.2,1l-0.4,1.4c-0.4,1.2-1.1,2.1-2.1,2.8l-3.2,2c-0.6,0.4-1.4-0.3-1.2-1
			l0.4-1.4C2.8,83.8,3.5,82.8,4.5,82.2"/>
	</g>
	<g>
		<path class="st0" d="M3.1,89.3l3.1-2.2c0.6-0.4,1.4,0.2,1.3,0.9l-0.3,1.4c-0.3,1.2-1,2.2-1.9,2.9l-3.1,2.2
			c-0.6,0.4-1.4-0.2-1.3-0.9l0.3-1.4C1.5,91,2.2,90,3.1,89.3"/>
	</g>
	<g>
		<path class="st0" d="M2.3,96.5L5.2,94c0.6-0.5,1.4,0.1,1.3,0.8l-0.2,1.4c-0.2,1.2-0.8,2.3-1.7,3l-2.9,2.4
			c-0.6,0.5-1.4-0.1-1.3-0.8l0.2-1.4C0.8,98.3,1.4,97.2,2.3,96.5"/>
	</g>
	<g>
		<path class="st0" d="M1.9,103.7l2.7-2.6c0.5-0.5,1.4,0,1.4,0.7l-0.1,1.4c-0.1,1.2-0.6,2.3-1.5,3.2L1.6,109c-0.5,0.5-1.4,0-1.4-0.7
			l0.1-1.4C0.5,105.6,1,104.5,1.9,103.7"/>
	</g>
	<g>
		<path class="st0" d="M2,110.9l2.5-2.8C5,107.6,6,108,6,108.8l0,1.4c0,1.2-0.5,2.4-1.3,3.2l-2.5,2.8c-0.5,0.5-1.4,0.1-1.4-0.6
			l0-1.4C0.8,113,1.2,111.8,2,110.9"/>
	</g>
	<g>
		<path class="st0" d="M2.7,118.2l2.3-3c0.5-0.6,1.4-0.2,1.5,0.5l0.1,1.4c0.1,1.2-0.3,2.4-1,3.3l-2.3,3c-0.4,0.6-1.4,0.2-1.5-0.5
			l-0.1-1.4C1.6,120.3,1.9,119.1,2.7,118.2"/>
	</g>
	<g>
		<path class="st0" d="M3.8,125.3l2.1-3.1c0.4-0.6,1.4-0.3,1.5,0.4l0.2,1.4c0.1,1.2-0.1,2.4-0.8,3.4l-2.1,3.1
			c-0.4,0.6-1.4,0.3-1.5-0.4L3,128.7C2.9,127.5,3.1,126.3,3.8,125.3"/>
	</g>
	<g>
		<path class="st0" d="M5.4,132.4l1.9-3.3c0.4-0.6,1.4-0.4,1.5,0.3l0.3,1.4c0.2,1.2,0,2.4-0.6,3.4l-1.9,3.3
			c-0.4,0.6-1.4,0.4-1.5-0.3l-0.3-1.4C4.7,134.6,4.9,133.4,5.4,132.4"/>
	</g>
	<g>
		<path class="st0" d="M7.6,139.3l1.7-3.4c0.3-0.6,1.3-0.5,1.5,0.2l0.4,1.4c0.3,1.2,0.2,2.4-0.3,3.5l-1.7,3.4
			c-0.3,0.6-1.3,0.5-1.5-0.2l-0.4-1.4C6.9,141.6,7,140.3,7.6,139.3"/>
	</g>
	<g>
		<path class="st0" d="M10.2,146l1.4-3.5c0.3-0.7,1.3-0.6,1.5,0.1l0.5,1.4c0.4,1.2,0.4,2.4-0.1,3.5l-1.4,3.5
			c-0.3,0.7-1.3,0.6-1.5-0.1l-0.5-1.4C9.7,148.4,9.7,147.1,10.2,146"/>
	</g>
	<g>
		<path class="st0" d="M13.2,152.6l1.2-3.6c0.2-0.7,1.2-0.7,1.5,0l0.6,1.3c0.5,1.1,0.5,2.4,0.2,3.5l-1.2,3.6c-0.2,0.7-1.3,0.7-1.5,0
			l-0.6-1.3C12.9,155,12.9,153.7,13.2,152.6"/>
	</g>
	<g>
		<path class="st0" d="M16.8,158.9l0.9-3.7c0.2-0.7,1.2-0.8,1.5-0.1l0.7,1.3c0.5,1.1,0.7,2.3,0.4,3.5l-0.9,3.7
			c-0.2,0.7-1.2,0.8-1.5,0.1l-0.6-1.3C16.6,161.3,16.5,160.1,16.8,158.9"/>
	</g>
	<g>
		<path class="st0" d="M20.7,165l0.7-3.7c0.1-0.7,1.1-0.9,1.5-0.2l0.7,1.2c0.6,1,0.9,2.3,0.6,3.4l-0.7,3.7c-0.1,0.7-1.1,0.9-1.5,0.2
			l-0.7-1.2C20.7,167.4,20.5,166.2,20.7,165"/>
	</g>
	<g>
		<path class="st0" d="M25.1,170.8l0.4-3.8c0.1-0.7,1.1-0.9,1.5-0.3l0.8,1.2c0.7,1,1,2.2,0.9,3.4l-0.4,3.8c-0.1,0.7-1.1,0.9-1.5,0.3
			l-0.8-1.2C25.3,173.1,25,172,25.1,170.8"/>
	</g>
	<g>
		<path class="st0" d="M29.8,176.2l0.1-3.8c0-0.7,1-1,1.5-0.4l0.9,1.1c0.8,1,1.2,2.1,1.1,3.3l-0.1,3.8c0,0.7-1,1-1.5,0.4l-0.9-1.1
			C30.2,178.6,29.8,177.4,29.8,176.2"/>
	</g>
	<g>
		<path class="st0" d="M35,181.4l-0.1-3.8c0-0.7,0.9-1.1,1.4-0.5l1,1c0.8,0.9,1.3,2,1.4,3.2l0.1,3.8c0,0.7-0.9,1.1-1.5,0.5l-1-1
			C35.5,183.7,35,182.5,35,181.4"/>
	</g>
	<g>
		<path class="st0" d="M40.4,186.1l-0.4-3.8c-0.1-0.7,0.9-1.1,1.4-0.6l1,1c0.9,0.8,1.4,1.9,1.6,3.1l0.4,3.8c0.1,0.7-0.9,1.1-1.4,0.6
			l-1.1-1C41.1,188.4,40.6,187.3,40.4,186.1"/>
	</g>
	<g>
		<path class="st0" d="M46.2,190.5l-0.7-3.7c-0.1-0.7,0.8-1.2,1.4-0.7l1.1,0.9c0.9,0.8,1.6,1.8,1.8,3l0.7,3.7
			c0.1,0.7-0.8,1.2-1.4,0.7l-1.1-0.9C47.1,192.7,46.4,191.6,46.2,190.5"/>
	</g>
	<g>
		<path class="st0" d="M52.3,194.4l-0.9-3.7c-0.2-0.7,0.7-1.2,1.3-0.8l1.2,0.8c1,0.7,1.7,1.7,2,2.9l0.9,3.7c0.2,0.7-0.7,1.2-1.3,0.8
			l-1.2-0.8C53.3,196.6,52.6,195.5,52.3,194.4"/>
	</g>
	<g>
		<path class="st0" d="M58.7,197.9l-1.2-3.6c-0.2-0.7,0.6-1.3,1.2-0.9l1.2,0.7c1,0.6,1.8,1.6,2.2,2.7l1.2,3.6
			c0.2,0.7-0.6,1.3-1.2,0.9l-1.2-0.7C59.8,200,59,199,58.7,197.9"/>
	</g>
	<g>
		<path class="st0" d="M65.2,200.9l-1.4-3.5c-0.3-0.7,0.5-1.3,1.2-1l1.3,0.7c1.1,0.6,1.9,1.5,2.4,2.6l1.4,3.5c0.3,0.7-0.5,1.3-1.2,1
			l-1.3-0.7C66.5,203,65.7,202,65.2,200.9"/>
	</g>
	<g>
		<path class="st0" d="M72,203.5l-1.7-3.4c-0.3-0.6,0.4-1.4,1.1-1.1l1.3,0.6c1.1,0.5,2,1.3,2.5,2.4l1.7,3.4c0.3,0.6-0.4,1.4-1.1,1.1
			l-1.3-0.6C73.4,205.4,72.5,204.6,72,203.5"/>
	</g>
	<g>
		<path class="st0" d="M78.9,205.6l-1.9-3.3c-0.4-0.6,0.3-1.4,1-1.1l1.4,0.5c1.2,0.4,2.1,1.2,2.7,2.2l1.9,3.3c0.4,0.6-0.3,1.4-1,1.1
			l-1.3-0.5C80.5,207.5,79.5,206.7,78.9,205.6"/>
	</g>
	<g>
		<path class="st0" d="M86,207.3l-2.1-3.1c-0.4-0.6,0.2-1.4,0.9-1.2l1.4,0.4c1.2,0.3,2.2,1,2.9,2l2.1,3.1c0.4,0.6-0.2,1.4-0.9,1.2
			l-1.4-0.4C87.6,209,86.6,208.3,86,207.3"/>
	</g>
	<g>
		<path class="st0" d="M93.1,208.4l-2.3-3c-0.5-0.6,0.1-1.4,0.9-1.3l1.4,0.3c1.2,0.2,2.3,0.9,3,1.8l2.3,3c0.4,0.6-0.1,1.4-0.9,1.3
			l-1.4-0.3C94.9,210,93.9,209.3,93.1,208.4"/>
	</g>
	<g>
		<path class="st0" d="M100.3,209l-2.5-2.8c-0.5-0.5,0-1.4,0.8-1.3l1.4,0.2c1.2,0.1,2.3,0.7,3.1,1.6l2.5,2.8c0.5,0.5,0,1.4-0.8,1.3
			l-1.4-0.2C102.2,210.5,101.1,209.9,100.3,209"/>
	</g>
	<g>
		<path class="st0" d="M107.6,209.1l-2.7-2.6c-0.5-0.5-0.1-1.4,0.7-1.4l1.4,0.1c1.2,0.1,2.4,0.5,3.2,1.4l2.7,2.6
			c0.5,0.5,0.1,1.4-0.7,1.4l-1.4-0.1C109.6,210.4,108.4,210,107.6,209.1"/>
	</g>
	<g>
		<path class="st0" d="M114.8,208.8l-2.9-2.4c-0.6-0.5-0.2-1.4,0.6-1.4l1.4,0c1.2,0,2.4,0.4,3.3,1.2l2.9,2.4
			c0.6,0.5,0.2,1.4-0.6,1.4l-1.4,0C116.9,209.9,115.7,209.5,114.8,208.8"/>
	</g>
	<g>
		<path class="st0" d="M122,207.9l-3.1-2.2c-0.6-0.4-0.3-1.4,0.5-1.5l1.4-0.1c1.2-0.1,2.4,0.2,3.4,0.9l3.1,2.2
			c0.6,0.4,0.3,1.4-0.5,1.5l-1.4,0.1C124.2,208.9,123,208.6,122,207.9"/>
	</g>
	<g>
		<path class="st0" d="M129.1,206.5l-3.2-2c-0.6-0.4-0.4-1.4,0.4-1.5l1.4-0.2c1.2-0.2,2.4,0,3.4,0.7l3.2,2c0.6,0.4,0.4,1.4-0.4,1.5
			l-1.4,0.2C131.3,207.3,130.1,207.1,129.1,206.5"/>
	</g>
	<g>
		<path class="st0" d="M136.1,204.6l-3.3-1.8c-0.6-0.3-0.5-1.4,0.3-1.5l1.4-0.3c1.2-0.3,2.4-0.1,3.5,0.4l3.3,1.8
			c0.6,0.3,0.5,1.4-0.3,1.5l-1.4,0.3C138.4,205.3,137.2,205.1,136.1,204.6"/>
	</g>
	<g>
		<path class="st0" d="M143,202.2l-3.5-1.5c-0.7-0.3-0.6-1.3,0.2-1.5l1.4-0.4c1.2-0.4,2.4-0.3,3.5,0.2l3.4,1.5
			c0.7,0.3,0.6,1.3-0.2,1.5l-1.4,0.4C145.3,202.8,144.1,202.7,143,202.2"/>
	</g>
	<g>
		<path class="st0" d="M149.6,199.4l-3.5-1.3c-0.7-0.2-0.6-1.3,0-1.5l1.3-0.5c1.1-0.4,2.4-0.5,3.5,0l3.5,1.3c0.7,0.2,0.6,1.3,0,1.5
			l-1.3,0.5C152,199.8,150.8,199.8,149.6,199.4"/>
	</g>
	<g>
		<path class="st0" d="M156.1,196.1l-3.6-1c-0.7-0.2-0.7-1.2-0.1-1.5l1.3-0.6c1.1-0.5,2.3-0.6,3.5-0.3l3.6,1
			c0.7,0.2,0.7,1.2,0.1,1.5l-1.3,0.6C158.5,196.3,157.2,196.4,156.1,196.1"/>
	</g>
	<g>
		<path class="st0" d="M162.3,192.4l-3.7-0.8c-0.7-0.2-0.8-1.2-0.2-1.5l1.3-0.7c1.1-0.6,2.3-0.8,3.5-0.5l3.7,0.8
			c0.7,0.2,0.8,1.2,0.2,1.5l-1.3,0.7C164.7,192.4,163.5,192.6,162.3,192.4"/>
	</g>
	<g>
		<path class="st0" d="M168.2,188.2l-3.7-0.5c-0.7-0.1-0.9-1.1-0.3-1.5l1.2-0.8c1-0.7,2.2-0.9,3.4-0.8l3.7,0.5
			c0.7,0.1,0.9,1.1,0.3,1.5l-1.2,0.8C170.6,188.1,169.4,188.4,168.2,188.2"/>
	</g>
	<g>
		<path class="st0" d="M173.9,183.6l-3.8-0.3c-0.7-0.1-1-1-0.4-1.5l1.1-0.9c1-0.7,2.2-1.1,3.3-1l3.8,0.3c0.7,0.1,1,1,0.4,1.5
			l-1.2,0.9C176.2,183.4,175,183.7,173.9,183.6"/>
	</g>
	<g>
		<polygon class="st0" points="96.8,22.2 102.3,18.3 100.2,11.8 105.6,15.8 111.2,11.7 109,18.2 114.6,22.2 107.8,22.2 105.7,28.7 
			103.6,22.2 		"/>
	</g>
	<g>
		<polygon class="st0" points="65.6,32 69.2,26.2 64.7,21 71.3,22.6 74.9,16.8 75.4,23.5 82.1,25.1 75.8,27.7 76.3,34.5 71.9,29.3 
					"/>
	</g>
	<g>
		<polygon class="st0" points="40.6,52.9 41.7,46.2 35.6,43.1 42.3,42.1 43.3,35.3 46.4,41.4 53.1,40.3 48.3,45.1 51.4,51.1 
			45.4,48 		"/>
	</g>
	<g>
		<polygon class="st0" points="25.4,81.8 23.9,75.2 17,74.7 22.9,71.1 21.2,64.5 26.4,68.9 32.2,65.3 29.6,71.6 34.8,76 28,75.5 		
			"/>
	</g>
	<g>
		<polygon class="st0" points="22.5,114.3 18.5,108.8 12,110.9 16.1,105.4 12,99.9 18.5,102 22.5,96.5 22.4,103.3 29,105.4 
			22.5,107.5 		"/>
	</g>
	<g>
		<polygon class="st0" points="32.2,145.5 26.5,141.9 21.3,146.3 22.9,139.7 17,136.2 23.8,135.7 25.4,129 28,135.3 34.8,134.7 
			29.6,139.1 		"/>
	</g>
	<g>
		<polygon class="st0" points="53.2,170.5 46.5,169.4 43.4,175.5 42.3,168.8 35.6,167.8 41.6,164.7 40.5,157.9 45.3,162.8 
			51.4,159.6 48.3,165.7 		"/>
	</g>
	<g>
		<polygon class="st0" points="82.1,185.6 75.5,187.2 74.9,194 71.4,188.2 64.8,189.8 69.2,184.7 65.6,178.9 71.9,181.5 76.3,176.3 
			75.7,183 		"/>
	</g>
	<g>
		<polygon class="st0" points="114.6,188.6 109.1,192.5 111.2,199 105.7,195 100.2,199.1 102.3,192.6 96.8,188.6 103.6,188.6 
			105.7,182.1 107.7,188.6 		"/>
	</g>
	<g>
		<polygon class="st0" points="145.7,178.8 142.2,184.6 146.6,189.8 140,188.2 136.5,194 135.9,187.3 129.3,185.7 135.6,183.1 
			135,176.3 139.4,181.5 		"/>
	</g>
	<g>
		<polygon class="st0" points="170.8,157.9 169.7,164.6 175.8,167.7 169.1,168.7 168,175.5 165,169.4 158.2,170.5 163,165.7 
			159.9,159.7 165.9,162.8 		"/>
	</g>
	<g>
		<polygon class="st0" points="185.9,129 187.5,135.6 194.3,136.1 188.5,139.7 190.1,146.3 185,141.9 179.1,145.5 181.8,139.2 
			176.5,134.8 183.3,135.3 		"/>
	</g>
	<g>
		<polygon class="st0" points="188.8,96.5 192.8,102 199.3,99.9 195.3,105.4 199.3,110.9 192.9,108.8 188.9,114.3 188.9,107.5 
			182.4,105.4 188.9,103.3 		"/>
	</g>
	<g>
		<polygon class="st0" points="179.1,65.3 184.9,68.9 190.1,64.5 188.5,71.1 194.3,74.6 187.5,75.1 186,81.8 183.4,75.5 176.6,76.1 
			181.7,71.7 		"/>
	</g>
	<g>
		<polygon class="st0" points="158.2,40.3 164.9,41.4 168,35.3 169,42 175.8,43 169.7,46.1 170.8,52.9 166,48 159.9,51.2 163,45.1 
					"/>
	</g>
	<g>
		<polygon class="st0" points="129.3,25.2 135.9,23.6 136.4,16.8 139.9,22.6 146.6,21 142.1,26.1 145.7,31.9 139.5,29.3 135,34.5 
			135.6,27.8 		"/>
	</g>
	<g>
		<path class="st0" d="M105.7,53.3c-28.7,0-52.1,23.4-52.1,52.1c0,28.7,23.4,52.1,52.1,52.1c28.7,0,52.1-23.4,52.1-52.1
			C157.8,76.7,134.4,53.3,105.7,53.3 M105.7,159.1C76.1,159.1,52,135,52,105.4c0-29.6,24.1-53.7,53.7-53.7s53.7,24.1,53.7,53.7
			C159.4,135,135.3,159.1,105.7,159.1"/>
	</g>
	<g>
		<path class="st0" d="M105.7,34.7c-39,0-70.7,31.7-70.7,70.7c0,39,31.7,70.7,70.7,70.7c39,0,70.7-31.7,70.7-70.7
			C176.4,66.4,144.6,34.7,105.7,34.7 M105.7,177.7c-39.9,0-72.3-32.4-72.3-72.3c0-39.9,32.4-72.3,72.3-72.3
			c39.9,0,72.3,32.4,72.3,72.3C178,145.3,145.5,177.7,105.7,177.7"/>
	</g>
	<g>
		<polygon class="st0" points="85.7,166.8 87.9,167.6 87.4,169.2 81,167 81.5,165.4 83.8,166.2 86.1,159.4 88,160.1 		"/>
	</g>
	<g>
		<path class="st0" d="M76.5,166.5c-0.2,0.5-0.8,0.6-1.2,0.4c-0.4-0.2-0.6-0.7-0.4-1.2c0.2-0.4,0.7-0.6,1.2-0.4
			C76.6,165.5,76.7,166.1,76.5,166.5 M74.1,165.3c-0.2,0.5-0.8,0.6-1.2,0.4c-0.4-0.2-0.6-0.7-0.4-1.2c0.2-0.4,0.7-0.6,1.2-0.4
			C74.2,164.3,74.3,164.8,74.1,165.3 M76.7,165l2.3-4.5c0.7-1.3,0.5-2.3-0.4-2.8c-0.9-0.5-1.8-0.1-2.5,1.3l-2.3,4.5l-1.8-0.9
			l2.3-4.4c1.2-2.4,3.1-2.9,5.1-1.9c2,1,2.6,2.7,1.3,5.2l-2.3,4.4L76.7,165z"/>
	</g>
	<g>
		<path class="st0" d="M69.8,156.4l-0.6-0.5c-0.8-0.6-1.6-0.5-2,0.1c-0.5,0.7-0.3,1.3,0.5,1.9c0.4,0.3,0.6,0.4,0.8,0.5L69.8,156.4z
			 M69.1,160.6c-0.6-0.3-1.4-0.8-2.2-1.4c-1.1-0.8-1.7-1.5-1.9-2.2c-0.2-0.6,0-1.3,0.4-2c0.7-0.9,1.8-1.1,2.5-0.8l0,0
			c-0.4-0.6-0.3-1.2,0-2c0.4-1,0.8-2.1,0.9-2.4l1.6,1.2c0,0.3-0.3,1-0.7,2c-0.5,1-0.3,1.5,0.3,2l0.5,0.4l2-2.8l1.6,1.2L69.1,160.6z"
			/>
	</g>
	<g>
		<path class="st0" d="M61.5,154.9l-1.4-1.4l2.7-2.8l0,0c-0.4,0.1-0.7,0.2-1.1,0.3l-3.5,0.7l-1.7-1.7l4.7-0.6l1.4-5.8l1.7,1.6
			l-1.1,4.2l1.2-0.1l2-2l1.4,1.4L61.5,154.9z"/>
	</g>
	<g>
		<path class="st0" d="M53.7,146.4l6.8-5.6l1.3,1.5l-6.8,5.6L53.7,146.4z M53.8,148.8c-0.4,0.3-1,0.3-1.3-0.1
			c-0.3-0.4-0.2-0.9,0.1-1.2c0.4-0.3,0.9-0.3,1.2,0.1C54.2,147.9,54.1,148.5,53.8,148.8"/>
	</g>
	<g>
		<path class="st0" d="M58,137.4l-3,2l-2.9,5.2l-1.2-1.9l1.3-1.9c0.4-0.6,0.7-1,1-1.5l0,0c-0.6,0.1-1.1,0.2-1.8,0.4l-2.3,0.4
			l-1.2-1.9l5.9-0.4l3.1-2L58,137.4z"/>
	</g>
	<g>
		<polygon class="st0" points="49.1,128.9 50.5,131.8 52.4,130.9 50.8,127.7 52.3,127 54.7,132.1 46.7,135.8 44.4,130.9 45.9,130.2 
			47.3,133.3 49,132.5 47.6,129.6 		"/>
	</g>
	<g>
		<path class="st0" d="M48.9,116.4c0.3,0.3,0.7,1.1,0.9,2.1c0.8,2.9-0.7,4.9-3.1,5.6c-2.9,0.7-5.1-0.9-5.7-3.5
			c-0.3-1-0.2-1.8-0.2-2.2l1.6,0c-0.1,0.4-0.1,1,0.1,1.7c0.4,1.5,1.6,2.5,3.5,2c1.7-0.4,2.5-1.7,2.1-3.4c-0.1-0.6-0.4-1.2-0.7-1.5
			L48.9,116.4z"/>
	</g>
	<g>
		<path class="st0" d="M39.9,113.6l5-0.5c1.5-0.1,2.2-0.8,2.1-1.8c-0.1-1-0.9-1.5-2.4-1.4l-5,0.5l-0.2-2l4.9-0.5
			c2.7-0.3,4.1,1,4.3,3.3c0.2,2.2-0.9,3.6-3.7,3.9l-4.9,0.5L39.9,113.6z"/>
	</g>
	<g>
		<path class="st0" d="M45.3,97.9c-1.1,0-2.3-0.1-3.6-0.2l0,0c1.1,0.4,2.3,0.8,3.3,1.2l3.3,1.3l-0.1,1.6l-3.5,0.7
			c-1.1,0.2-2.3,0.4-3.5,0.5v0c1.2,0.1,2.5,0.3,3.6,0.4l3.3,0.4l-0.1,1.8l-8.7-1.2l0.2-2.6l3-0.6c1-0.2,2.2-0.4,3.2-0.5l0,0
			c-1-0.3-2.1-0.7-3.1-1.1l-2.8-1.2l0.2-2.6l8.8,0.2L48.6,98L45.3,97.9z"/>
	</g>
	<g>
		<polygon class="st0" points="41.2,89.9 44.5,90.8 45.3,87.6 42.1,86.8 42.6,84.8 51.1,87.1 50.6,89 47,88.1 46.2,91.2 49.7,92.2 
			49.2,94.1 40.7,91.9 		"/>
	</g>
	<g>
		<path class="st0" d="M44.6,79.7l4.6,2.1c1.4,0.6,2.3,0.4,2.7-0.5c0.4-1,0-1.8-1.4-2.4l-4.6-2.1l0.8-1.8l4.5,2
			c2.5,1.1,3.1,2.9,2.1,5c-0.9,2-2.6,2.7-5.1,1.6l-4.5-2L44.6,79.7z"/>
	</g>
	<g>
		<path class="st0" d="M52.8,72.3l0.4-0.7c0.5-0.8,0.4-1.6-0.2-2c-0.7-0.4-1.3-0.2-1.8,0.6c-0.3,0.4-0.4,0.7-0.4,0.8L52.8,72.3z
			 M48.6,71.9c0.3-0.6,0.7-1.4,1.3-2.3c0.7-1.1,1.4-1.8,2.1-2c0.6-0.2,1.3-0.1,2,0.3c0.9,0.6,1.2,1.7,1,2.5l0,0
			c0.5-0.4,1.2-0.3,2-0.1c1,0.3,2.1,0.7,2.5,0.8l-1.1,1.7c-0.3,0-1-0.2-2.1-0.6c-1-0.4-1.5-0.2-2,0.4L54,73.1l2.9,1.9l-1.1,1.7
			L48.6,71.9z"/>
	</g>
	<g>
		<path class="st0" d="M55.1,62.7l6.8,5.6l-1.3,1.5l-6.8-5.6L55.1,62.7z M52.8,63.3c-0.4-0.3-0.4-0.9-0.1-1.3
			c0.3-0.4,0.9-0.4,1.2-0.1c0.4,0.3,0.4,0.9,0.1,1.2C53.7,63.5,53.1,63.6,52.8,63.3"/>
	</g>
	<g>
		<path class="st0" d="M64.7,65.1l-2.5-2.6l-5.6-1.8l1.6-1.6l2.1,0.9c0.6,0.3,1.1,0.5,1.7,0.7l0,0c-0.2-0.5-0.5-1-0.7-1.7L60.5,57
			l1.6-1.6l1.5,5.7l2.6,2.6L64.7,65.1z"/>
	</g>
	<g>
		<polygon class="st0" points="71.3,54.8 68.7,56.7 69.9,58.4 72.9,56.2 73.8,57.5 69.3,60.9 64.1,53.8 68.4,50.6 69.4,51.9 
			66.6,53.9 67.7,55.4 70.3,53.5 		"/>
	</g>
	<g>
		<polygon class="st0" points="73.4,49.5 71.4,50.6 70.6,49.1 76.5,45.9 77.3,47.3 75.2,48.5 78.6,54.7 76.9,55.7 		"/>
	</g>
	<g>
		<path class="st0" d="M80.5,44.1l3.5,8.1L82.2,53l-3.5-8.1L80.5,44.1z M78.2,43.6c-0.2-0.5,0-1,0.5-1.2c0.5-0.2,1,0,1.2,0.5
			c0.2,0.4,0,1-0.5,1.2C78.9,44.3,78.4,44,78.2,43.6"/>
	</g>
	<g>
		<path class="st0" d="M95.8,48.3c-0.6,0.3-1.6,0.9-2.7,1.2c-1.6,0.4-2.8,0.2-3.8-0.3c-1-0.5-1.7-1.6-1.9-2.8c-0.7-2.9,1-5,3.8-5.6
			c1.1-0.3,2-0.3,2.5-0.1l0,1.6c-0.5-0.1-1.1-0.1-2.1,0.1c-1.6,0.4-2.6,1.6-2.2,3.4c0.4,1.8,1.8,2.5,3.4,2.2
			c0.4-0.1,0.8-0.2,0.9-0.4l-0.4-1.8l-1.3,0.3l-0.4-1.5l3.2-0.8L95.8,48.3z"/>
	</g>
	<g>
		<polygon class="st0" points="102.8,44.3 99.6,44.6 99.8,46.7 103.4,46.3 103.5,48 97.9,48.5 97.2,39.7 102.6,39.2 102.7,40.8 
			99.3,41.1 99.5,43 102.7,42.7 		"/>
	</g>
	<g>
		<path class="st0" d="M105.4,47.9l0.5-8.8l2.3,0.1l1.6,3.3c0.5,1,0.9,2.1,1.3,3.1l0,0c-0.1-1.2,0-2.4,0-3.7l0.1-2.6l1.8,0.1
			l-0.5,8.8l-2.1-0.1l-1.7-3.5c-0.5-1-1-2.1-1.3-3.2l0,0c0,1.2-0.1,2.4-0.1,3.8l-0.2,2.6L105.4,47.9z"/>
	</g>
	<g>
		<path class="st0" d="M121.2,49.8c-0.4,0.1-1.2,0.1-2.1-0.1l-0.3,0.4c0.5,0.2,0.8,0.6,0.7,1.2c-0.2,0.9-1,1-1.8,0.8
			c-0.4-0.1-0.8-0.3-1-0.5l0.4-0.7c0.2,0.1,0.4,0.3,0.7,0.3c0.3,0.1,0.5,0,0.5-0.2c0.1-0.3-0.2-0.5-0.9-0.7l0.7-1
			c-2.4-0.8-3.2-2.8-2.7-5c0.6-2.9,3.1-4.1,5.7-3.6c1,0.2,1.7,0.6,2,0.8l-0.7,1.5c-0.4-0.3-0.9-0.5-1.6-0.7
			c-1.5-0.3-2.9,0.3-3.4,2.3c-0.4,1.7,0.4,3,2.2,3.4c0.6,0.1,1.3,0.1,1.7,0.1L121.2,49.8z"/>
	</g>
	<g>
		<polygon class="st0" points="125.7,42.2 127.6,42.9 125.2,49.6 128.5,50.8 127.9,52.4 122.8,50.5 		"/>
	</g>
	<g>
		<path class="st0" d="M133.9,44c0.2-0.5,0.8-0.6,1.2-0.4c0.4,0.2,0.6,0.7,0.4,1.2c-0.2,0.4-0.7,0.6-1.2,0.4
			C133.9,44.9,133.7,44.4,133.9,44 M135,46l-3.8,8l-1.8-0.9l3.8-8L135,46z"/>
	</g>
	<g>
		<path class="st0" d="M137.9,47.5l1.7,1l-2.1,3.3l0,0c0.3-0.2,0.7-0.3,1-0.5l3.2-1.4l2.1,1.3l-4.5,1.6l-0.1,5.9l-2-1.2l0.2-4.4
			l-1.1,0.4l-1.5,2.4l-1.7-1L137.9,47.5z"/>
	</g>
	<g>
		<path class="st0" d="M144.1,62.7l4-8.3l1.6,1.5l-1.8,3.4c-0.5,1-1,1.9-1.6,2.8l0,0c0.9-0.6,1.8-1.2,2.7-1.7l3.4-2l1.5,1.5
			l-8.2,4.4L144.1,62.7z"/>
	</g>
	<g>
		<polygon class="st0" points="155,69.2 153,66.7 151.3,68 153.6,70.8 152.3,71.8 148.8,67.4 155.7,61.9 159.1,66.2 157.8,67.2 
			155.6,64.5 154.2,65.7 156.3,68.2 		"/>
	</g>
	<g>
		<path class="st0" d="M156.7,74.8c0,0.6,0.2,1.5,0.6,2.2c0.4,0.8,1,1,1.5,0.8c0.5-0.3,0.6-0.8,0.4-1.9c-0.3-1.5,0-2.8,1.1-3.4
			c1.3-0.7,2.9-0.2,3.9,1.7c0.5,0.9,0.6,1.6,0.7,2.2l-1.6,0.4c0-0.4-0.1-1.1-0.5-1.8c-0.4-0.8-1-0.9-1.4-0.7c-0.5,0.3-0.5,0.8-0.3,2
			c0.2,1.6-0.1,2.7-1.2,3.3c-1.3,0.7-2.9,0.3-4.1-1.8c-0.5-0.9-0.7-1.9-0.7-2.4L156.7,74.8z"/>
	</g>
	<g>
		<path class="st0" d="M163.4,82.5c0,0.2,0.1,0.4,0.2,0.6c0.4,1,1.1,1.4,2,1.1c0.8-0.3,1-1,0.7-1.9c-0.1-0.4-0.3-0.6-0.4-0.7
			L163.4,82.5z M166.5,79.3c0.3,0.5,0.7,1.3,1.1,2.4c0.4,1.1,0.5,2.1,0.3,2.8c-0.2,0.7-0.8,1.3-1.6,1.6c-0.8,0.3-1.6,0.3-2.2,0
			c-0.8-0.4-1.5-1.2-1.9-2.3c-0.1-0.2-0.2-0.5-0.2-0.6l-2.9,1.1l-0.7-1.8L166.5,79.3z"/>
	</g>
	<g>
		<path class="st0" d="M165.7,90.6c-1.7,0.4-2.7,1.4-2.4,2.7c0.3,1.3,1.7,1.8,3.4,1.5c1.5-0.3,2.7-1.3,2.4-2.7
			C168.8,90.8,167.4,90.3,165.7,90.6 M167.1,96.8c-2.8,0.6-4.9-0.8-5.4-3.3c-0.5-2.6,1.1-4.5,3.5-5c2.6-0.5,4.9,0.7,5.4,3.3
			C171.2,94.5,169.5,96.3,167.1,96.8"/>
	</g>
	<g>
		<path class="st0" d="M167.8,101.2l0,0.8c0,1,0.6,1.6,1.3,1.5c0.8,0,1.2-0.6,1.2-1.5c0-0.5-0.1-0.8-0.1-0.9L167.8,101.2z
			 M171.5,99.1c0.1,0.6,0.3,1.6,0.3,2.6c0.1,1.3-0.1,2.2-0.5,2.9c-0.4,0.5-1,0.9-1.8,0.9c-1.1,0.1-1.9-0.7-2.2-1.4l0,0
			c-0.2,0.6-0.8,1-1.6,1.3c-1,0.3-2.1,0.7-2.4,0.8l-0.1-2c0.2-0.2,0.9-0.4,2-0.7c1.1-0.3,1.4-0.7,1.3-1.5l0-0.6l-3.5,0.2l-0.1-2
			L171.5,99.1z"/>
	</g>
	<g>
		<path class="st0" d="M167.9,113.2l-0.1,0.6c-0.1,1,0.2,1.7,0.8,1.7c0.7,0.1,1.1-0.4,1.2-1.3c0.1-0.4,0.1-0.7,0.1-0.8L167.9,113.2z
			 M164.1,112.7c-0.1,0.2-0.1,0.4-0.1,0.8c-0.1,0.9,0.1,1.7,1,1.9c0.9,0.1,1.3-0.6,1.5-1.6l0.1-0.7L164.1,112.7z M171.5,111.7
			c0,0.5,0,1.6-0.2,2.6c-0.2,1.2-0.4,1.9-0.9,2.5c-0.4,0.6-1.1,0.9-1.9,0.8c-0.8-0.1-1.4-0.7-1.7-1.7l0,0c-0.4,1-1.3,1.6-2.4,1.4
			c-0.8-0.1-1.4-0.6-1.7-1.2c-0.4-0.7-0.6-1.8-0.3-3.5c0.1-1,0.3-1.7,0.4-2.1L171.5,111.7z"/>
	</g>
	<g>
		<path class="st0" d="M164,123.7l1.9,0c0.5,0,1.2,0,1.8,0.1l0,0c-0.5-0.3-1.1-0.6-1.5-0.9l-1.6-1L164,123.7z M163.3,121.2l-2-1.2
			l0.6-2l7.7,5.1l-0.7,2.5l-9.2,0.1l0.6-2.1l2.4,0L163.3,121.2z"/>
	</g>
	<g>
		<path class="st0" d="M167,130.8l-0.8,1.8l-3.5-1.7l0,0c0.2,0.3,0.4,0.6,0.6,1l1.8,3.1l-1,2.2l-2.2-4.2l-5.9,0.6l1-2.1l4.4-0.3
			l-0.5-1.1l-2.6-1.2l0.8-1.8L167,130.8z"/>
	</g>
	<g>
		<path class="st0" d="M155.7,140.6l1.9,0.6c0.5,0.2,1.1,0.4,1.7,0.6l0,0c-0.4-0.4-0.8-0.9-1.2-1.3l-1.2-1.5L155.7,140.6z
			 M155.8,137.9l-1.5-1.8l1.2-1.7l5.8,7.2l-1.5,2.2l-8.8-2.7l1.2-1.8l2.2,0.7L155.8,137.9z"/>
	</g>
	<g>
		<path class="st0" d="M149.9,142.2l6.4,6l-1.6,1.7l-3.6-0.9c-1-0.3-2.2-0.6-3.2-1l0,0c0.9,0.7,1.8,1.5,2.8,2.4l1.9,1.8l-1.3,1.3
			l-6.4-6l1.4-1.5l3.8,1c1,0.3,2.3,0.6,3.3,1l0,0c-0.9-0.8-1.8-1.6-2.8-2.6l-1.9-1.8L149.9,142.2z"/>
	</g>
	<g>
		<polygon class="st0" points="148.7,155.8 147.2,157 142.7,151.5 140,153.6 138.9,152.3 143.3,148.9 		"/>
	</g>
	<g>
		
			<rect x="138.1" y="153" transform="matrix(0.8408 -0.5414 0.5414 0.8408 -63.0621 100.3895)" class="st0" width="2" height="8.8"/>
	</g>
	<g>
		<path class="st0" d="M135.9,166.8c-0.2-0.2-0.5-0.4-1-0.2c-0.5,0.2-0.6,0.6-0.5,0.9l-0.9,0.4c-0.4-0.9-0.2-1.7,0.9-2.3
			c1.2-0.6,1.9-0.2,2.4,0.7L135.9,166.8z M127.6,159.1c0.5-0.5,1.4-1.2,2.4-1.7c1.4-0.7,2.7-0.9,3.7-0.5c1.1,0.3,2,1.2,2.5,2.3
			c1.3,2.6,0.1,5.1-2.5,6.3c-1,0.5-1.9,0.7-2.4,0.7l-0.3-1.6c0.5,0,1.1-0.1,2-0.6c1.5-0.7,2.2-2.1,1.4-3.8c-0.8-1.6-2.3-2.1-3.8-1.4
			c-0.4,0.2-0.7,0.4-0.8,0.5l0.8,1.7l1.2-0.6l0.7,1.4l-2.9,1.4L127.6,159.1z"/>
	</g>
	<g>
		
			<rect x="124.9" y="159.5" transform="matrix(0.9449 -0.3273 0.3273 0.9449 -46.6892 50.2255)" class="st0" width="2" height="8.8"/>
	</g>
	<g>
		<path class="st0" d="M105.7,165c-1.4,0-2.5,1.1-2.5,2.5c0,1.4,1.1,2.5,2.5,2.5c1.4,0,2.5-1.1,2.5-2.5
			C108.2,166.2,107.1,165,105.7,165"/>
	</g>
	<g>
		<path class="st0" d="M103.5,60.2c4.8,0,9,2.6,11.3,6.5c-1.9-2.3-4.8-3.8-8-3.8c-5.8,0-10.4,4.7-10.4,10.4
			c0,5.8,4.7,10.4,10.4,10.4c3.2,0,6.1-1.5,8-3.8c-2.3,3.9-6.5,6.5-11.3,6.5c-7.3,0-13.1-5.9-13.1-13.1
			C90.4,66.1,96.3,60.2,103.5,60.2"/>
	</g>
	<g>
		<polygon class="st0" points="119,67.2 121.8,71 126.3,69.5 123.5,73.3 126.4,77.1 121.8,75.7 119.1,79.5 119.1,74.8 114.6,73.4 
			119.1,71.9 		"/>
	</g>
	<g>
		<path class="st0" d="M101.1,115.3c-3.4,3.5-5.8,8.5-3.2,15c4.4,11.1,12.1,17.7,12.7,18.4c0,0-22.6-14.2-27.6-25.9
			c-3.1-7.5,1.9-12.2,8.9-13.1c1.1-0.1,2.3-0.2,3.7-0.4c0.3,0.7,0.7,1.4,1.2,2.1C97,111.8,98.3,113.6,101.1,115.3 M113.8,87.1
			c2.4,5.8,4.5,11.1,1.9,16.4c0,0-1.5,3.8-6.9,6.5c-0.8,0.4-1.7,0.9-2.6,1.5c-1.8-0.6-3.2-1.5-3.8-3c5.9-1.2,11.1-3.5,9.9-8.8
			c-0.5-2.3-1-3.6-2.8-6.1L113.8,87.1z M74.2,100.2c-0.3-4.8,3.4-8.9,8.2-9.1c4.8-0.3,8.9,3.4,9.1,8.2c0.3,4.8-3.4,8.9-8.2,9.1
			C78.5,108.7,74.4,105,74.2,100.2"/>
	</g>
	<g>
		<path class="st0" d="M119.8,102.5c0-4.8,3.9-8.7,8.7-8.7c4.8,0,8.7,3.9,8.7,8.7c0,4.8-3.9,8.7-8.7,8.7
			C123.7,111.2,119.8,107.3,119.8,102.5"/>
	</g>
	<g>
		<path class="st0" d="M122.4,113.2c-7.1,0.3-22.3,2-21.7-6.9c0.3-4.1,4.1-10.7,8.1-16.7c-1.7,0.5-3.5,0.8-5.4,0.8
			c-2.1,0-4.1-0.4-6-1c-1.8,6.5-3.6,15.7,0.3,21.3c0,0,2.1,3.5,7.8,5.3c5.7,1.8,16.6,6.8,14,18.5c-2.6,11.7-9.2,19.4-9.7,20.1
			c0,0,20.1-17.6,23.2-29.9C135.2,116.9,129.5,112.9,122.4,113.2"/>
	</g>
</g>
</svg>
